<?xml version="1.0" standalone="no"?>
<!DOCTYPE svg PUBLIC "-//W3C//DTD SVG 20010904//EN"
 "http://www.w3.org/TR/2001/REC-SVG-20010904/DTD/svg10.dtd">
<svg version="1.0" xmlns="http://www.w3.org/2000/svg"
 width="512.000000pt" height="512.000000pt" viewBox="0 0 512.000000 512.000000"
 preserveAspectRatio="xMidYMid meet">

<g transform="translate(0.000000,512.000000) scale(0.100000,-0.100000)"
fill="#000000" stroke="none">
<path d="M2305 5094 c-16 -2 -66 -9 -110 -15 -44 -6 -136 -24 -205 -40 -496
-117 -930 -359 -1254 -700 -419 -440 -636 -900 -711 -1500 -66 -534 76 -1167
362 -1617 l34 -52 2130 0 2129 0 41 63 c69 105 186 355 233 497 90 273 127
488 133 780 4 179 1 242 -16 375 -50 388 -184 747 -408 1090 -278 424 -741
790 -1228 971 -126 46 -365 107 -515 129 -109 17 -536 30 -615 19z m626 -302
c255 -48 436 -108 657 -221 364 -187 668 -464 879 -804 70 -114 181 -344 221
-458 86 -244 138 -579 128 -814 -9 -217 -53 -466 -114 -646 l-19 -54 -2130 -3
-2131 -2 -20 57 c-97 265 -138 692 -97 1010 129 1005 937 1814 1945 1948 163
21 532 14 681 -13z"/>
<path d="M2815 4304 c-11 -2 -45 -9 -75 -15 -172 -35 -341 -170 -422 -339 -18
-36 -33 -66 -34 -68 -1 -2 -39 5 -84 14 -70 15 -93 16 -160 6 -107 -15 -197
-58 -270 -128 -100 -95 -154 -201 -168 -328 l-7 -59 -57 -13 c-104 -24 -187
-81 -249 -171 -146 -212 -62 -522 171 -632 l55 -26 1010 0 1010 0 59 26 c157
70 270 199 311 356 20 76 19 225 -1 294 -44 149 -145 272 -275 334 -40 19 -81
35 -90 35 -13 0 -17 16 -22 88 -9 113 -27 177 -78 282 -85 171 -258 302 -444
335 -78 14 -139 17 -180 9z"/>
<path d="M920 609 c425 -341 815 -507 1348 -574 202 -26 519 -17 707 19 268
51 519 132 718 233 162 81 449 271 496 327 12 15 -124 16 -1640 16 l-1654 0
25 -21z"/>
</g>
</svg>
